Love_Happens_TS_XVID-IMAGiNE.



                      Another Fine Release Brought to you from - IMAGiNE                   
                                               
   
********************************************************************************************************************                                
                                 Love Happens TS XVID - IMAGiNE                                        
********************************************************************************************************************

Ripper ...........: IMAGiNE                                  IMDB Rating.......:5.4/10                             
Video Codec.......: XVID                                     Release Date......:04/10/09
Audio Codec.......:MP3                                       Theatre Date......:18/09/09
Audio Bitrate.....:192                                       Runtime.......:1h 43mn
Subtitles.........:NIL                                       Language..........:ENGLISH
Resolution...... 720 x 300                                   IMDb URL..........:http://www.imdb.com/title/tt0899106/


DETAILS:

Video
ID                               : 0
Format                           : MPEG-4 Visual
Format profile                   : Streaming Video@L1
Format settings, BVOP            : Yes
Format settings, QPel            : No
Format settings, GMC             : No warppoints
Format settings, Matrix          : Custom
Muxing mode                      : Packed bitstream
Codec ID                         : XVID
Codec ID/Hint                    : XviD
Duration                         : 1h 43mn
Bit rate                         : 1 134 Kbps
Width                            : 720 pixels
Height                           : 300 pixels
Display aspect ratio             : 2.400
Frame rate                       : 25.000 fps
Resolution                       : 24 bits
Colorimetry                      : 4:2:0
Scan type                        : Progressive
Bits/(Pixel*Frame)               : 0.210
Stream size                      : 842 MiB (85%)
Writing library                  : XviD 1.2.1 (UTC 2008-12-04)

Audio
ID                               : 1
Format                           : MPEG Audio
Format version                   : Version 1
Format profile                   : Layer 3
Codec ID                         : 55
Codec ID/Hint                    : MP3
Duration                         : 1h 43mn
Bit rate mode                    : Constant
Bit rate                         : 192 Kbps
Channel(s)                       : 2 channels
Sampling rate                    : 48.0 KHz
Resolution                       : 16 bits
Stream size                      : 143 MiB (14%)
Alignment                        : Split accross interleaves
Interleave, duration             : 40 ms (1.00 video frame)
Interleave, preload duration     : 500 ms



NOTES:

IMAGiNE bringing you another release.....
This time it's love happens......we used the russian source files for the video.
The video needed to be cropped differently throughout due to camera movement and resize...
also needed the usually contrast,colours,sharpness all sorting out.
Got to say the video also contains a slight flicker/pluse aswell .....
The audio is our own Direct audio....Enjoy!


